<svg preserveAspectRatio="none" width="100%" height="100%" overflow="visible" style="display: block;" viewBox="0 0 11.9095 7.93969" fill="none" xmlns="http://www.w3.org/2000/svg">
<path id="Vector" d="M0.662109 7.18359H3.30859C3.35912 7.18382 3.40234 7.22776 3.40234 7.27832C3.40219 7.32877 3.35903 7.37282 3.30859 7.37305H0.662109C0.61151 7.37305 0.56754 7.32889 0.567383 7.27832C0.567383 7.22763 0.611419 7.18359 0.662109 7.18359ZM0.662109 3.875H7.27832C7.32886 3.87516 7.37298 3.91918 7.37305 3.96973C7.37305 4.02033 7.3289 4.0643 7.27832 4.06445H0.662109C0.611419 4.06445 0.567383 4.02042 0.567383 3.96973C0.567451 3.91909 0.611458 3.875 0.662109 3.875ZM0.662109 0.567383H11.248C11.2987 0.567472 11.3428 0.611471 11.3428 0.662109C11.3425 0.71255 11.2985 0.75577 11.248 0.755859H0.662109C0.611576 0.755859 0.567653 0.7126 0.567383 0.662109C0.567383 0.611419 0.611419 0.567383 0.662109 0.567383Z" fill="var(--fill-0, #595959)" stroke="var(--stroke-0, #595959)" stroke-width="1.13424"/>
</svg>
